<?xml version="1.0" encoding="utf-8"?>
<!-- Generator: Adobe Illustrator 15.1.0, SVG Export Plug-In . SVG Version: 6.00 Build 0)  -->
<!DOCTYPE svg PUBLIC "-//W3C//DTD SVG 1.1//EN" "http://www.w3.org/Graphics/SVG/1.1/DTD/svg11.dtd">
<svg version="1.1" id="Layer_1" xmlns="http://www.w3.org/2000/svg" xmlns:xlink="http://www.w3.org/1999/xlink" x="0px" y="0px"
	 width="263px" height="100px" viewBox="0 -36.5 263 100" enable-background="new 0 -36.5 263 100" xml:space="preserve">
<path fill="#005A78" d="M38.99-3.682l-4.044,5.55c-2.024,2.821-1.398,7.757,1.366,9.75l7.494,5.408
	c1.277,0.938,1.396,1.856,0.787,2.829l1.085,0.816l3.79-5.261c2.345-3.232,2.143-7.658-1.34-10.202l-7.553-5.501
	c-0.904-0.653-1.004-1.582-0.501-2.628L38.99-3.682L38.99-3.682z M45.478-28.29l-6.287,8.704
	c-2.957,4.062-1.881,11.042,2.151,14.014l10.339,7.593c2.093,1.527,2.377,5.452,0.845,7.475l0.87,0.653l7.142-10.049
	c3.207-4.499,3.016-11.179-2.015-14.819l-11.065-8.035c-1.548-1.13-2.323-3.05-1.026-4.868L45.478-28.29L45.478-28.29z
	 M28.891,26.29h8.335l1.492,5.069c4.545,0,9.082,0,13.631,0l1.479-5.069h8.335l-1.086-3.714c-10.357,0-20.731,0-31.091,0
	L28.891,26.29L28.891,26.29z M29.524,49.375h-5v-4.184h5C33.193,45.191,32.972,49.375,29.524,49.375L29.524,49.375z M46.632,49.375
	h-4.976v-4.184h4.984C50.324,45.191,50.095,49.375,46.632,49.375L46.632,49.375z M63.765,49.375h-5.001v-4.184h5.001
	C67.438,45.191,67.217,49.375,63.765,49.375L63.765,49.375z M29.179,41.909h-4.654v-3.908h4.474
	C31.808,38.001,31.906,41.909,29.179,41.909L29.179,41.909z M46.303,41.909h-4.646v-3.908h4.474
	C48.926,38.001,49.029,41.909,46.303,41.909L46.303,41.909z M63.42,41.909h-4.656v-3.908h4.479
	C66.047,38.001,66.146,41.909,63.42,41.909L63.42,41.909z M36.062,47.036c-0.354-2.406-1.317-2.985-3.262-3.83
	c1.468-0.865,2.368-2.122,2.368-3.851c0-3.468-2.829-4.862-5.919-4.862H20.62v18.34h8.55C32.809,52.833,36.685,51.241,36.062,47.036
	L36.062,47.036z M53.184,47.036c-0.354-2.406-1.321-2.985-3.262-3.83c1.469-0.865,2.363-2.122,2.363-3.851
	c0-3.468-2.824-4.862-5.913-4.862H37.75v18.34h8.543C49.932,52.833,53.807,51.241,53.184,47.036L53.184,47.036z M70.302,47.036
	c-0.358-2.406-1.326-2.985-3.257-3.83c1.469-0.865,2.362-2.122,2.362-3.851c0-3.468-2.839-4.862-5.914-4.862h-8.619v18.34h8.537
	C67.064,52.833,70.925,51.241,70.302,47.036L70.302,47.036z M71.95,52.224c0-0.068,0-0.138-0.028-0.196
	c-0.01-0.059-0.048-0.117-0.099-0.157c-0.044-0.077-0.103-0.108-0.189-0.147c-0.075-0.039-0.174-0.079-0.297-0.127
	c-0.106-0.039-0.202-0.079-0.261-0.118c-0.068-0.021-0.121-0.06-0.151-0.088c-0.04-0.03-0.059-0.069-0.069-0.1
	c-0.01-0.038-0.019-0.069-0.019-0.127c0-0.039,0.009-0.079,0.019-0.119c0.011-0.039,0.04-0.077,0.069-0.097
	c0.03-0.021,0.074-0.041,0.132-0.059c0.05-0.011,0.128-0.011,0.203-0.011c0.098,0,0.2,0.011,0.279,0.069
	c0.084,0.02,0.152,0.078,0.23,0.137l0.152-0.206c-0.099-0.049-0.192-0.108-0.288-0.147c-0.095-0.039-0.212-0.059-0.365-0.059
	c-0.103,0-0.192,0-0.27,0.04c-0.083,0.019-0.153,0.058-0.211,0.106c-0.064,0.039-0.104,0.108-0.145,0.159
	c-0.027,0.066-0.038,0.146-0.038,0.216c0,0.087,0.011,0.156,0.029,0.205c0.009,0.059,0.05,0.098,0.098,0.158
	c0.056,0.06,0.113,0.107,0.192,0.137c0.083,0.05,0.182,0.09,0.295,0.118c0.099,0.038,0.177,0.078,0.24,0.099
	c0.06,0.038,0.108,0.098,0.163,0.117c0.028,0.03,0.059,0.068,0.077,0.098c0.021,0.05,0.021,0.079,0.021,0.139
	c0,0.118-0.039,0.215-0.123,0.255c-0.078,0.068-0.201,0.108-0.338,0.108c-0.113,0-0.212-0.04-0.315-0.078
	c-0.089-0.039-0.182-0.109-0.251-0.188l-0.161,0.177c0.084,0.089,0.191,0.157,0.313,0.216c0.109,0.06,0.25,0.079,0.402,0.079
	c0.109,0,0.212,0,0.301-0.04c0.085-0.039,0.161-0.079,0.212-0.116c0.062-0.061,0.113-0.128,0.151-0.188
	C71.941,52.382,71.95,52.322,71.95,52.224L71.95,52.224z M74.167,52.774v-2.083h-0.256l-0.502,1.257
	c-0.02,0.039-0.028,0.071-0.048,0.1c-0.01,0.038-0.02,0.066-0.029,0.117c-0.01,0.02-0.03,0.059-0.039,0.118
	c-0.016,0.019-0.025,0.058-0.025,0.078c0-0.021-0.01-0.06-0.029-0.078c-0.02-0.049-0.029-0.088-0.039-0.118
	c-0.01-0.051-0.021-0.079-0.04-0.117c-0.02-0.028-0.028-0.061-0.039-0.1l-0.516-1.257h-0.271v2.083h0.221v-1.405v-0.226
	c0,0.02,0.01,0.05,0.021,0.077c0,0.04,0.02,0.06,0.029,0.1c0.011,0.029,0.02,0.06,0.03,0.098c0.009,0.039,0.02,0.06,0.044,0.078
	l0.56,1.337l0.566-1.337c0.008-0.019,0.028-0.059,0.037-0.078c0.01-0.038,0.02-0.068,0.03-0.098c0.009-0.04,0.028-0.06,0.039-0.1
	c0-0.027,0.015-0.058,0.015-0.077v0.226v1.405H74.167L74.167,52.774z"/>
<g>
	<path fill="#005A78" d="M190.099,6.167c0.619-0.23,1.149-0.555,1.562-0.977c0.393-0.423,0.705-0.923,0.912-1.499
		c0.207-0.604,0.305-1.257,0.305-1.969c0-1.591-0.393-2.8-1.14-3.596c-0.775-0.805-2.033-1.193-3.781-1.193h-1.76v9.592h1.632
		C188.694,6.506,189.44,6.397,190.099,6.167z"/>
	<path fill="#005A78" d="M113.897,25.681h-4.283v4.048h4.283c0.786,0,1.361-0.177,1.745-0.529c0.367-0.375,0.558-0.886,0.558-1.505
		C116.2,26.349,115.439,25.681,113.897,25.681z"/>
	<path fill="#005A78" d="M163.015-1.088c0-0.711-0.216-1.237-0.619-1.537c-0.422-0.305-1.011-0.453-1.759-0.453h-4.321v4.023h4.321
		C162.229,0.945,163.015,0.282,163.015-1.088z"/>
	<path fill="#005A78" d="M113.569-1.098c-0.163-0.441-0.276-0.825-0.354-1.124c-0.079,0.299-0.202,0.683-0.354,1.124
		c-0.137,0.422-0.3,0.865-0.472,1.326l-1.065,2.859h3.781l-1.066-2.859C113.867-0.233,113.707-0.686,113.569-1.098z"/>
	<path fill="#005A78" d="M250.512-36.044H89.649v98.572h160.862c6.259,0,11.308-5.068,11.308-11.324v-75.921
		C261.819-30.971,256.771-36.044,250.512-36.044z M199.5-6.127h3.3V9.566h-3.3V-6.127z M182.897-6.127h5.177
		c1.18,0,2.27,0.133,3.271,0.413c1.002,0.27,1.866,0.728,2.604,1.346c0.727,0.639,1.297,1.43,1.72,2.436
		c0.421,0.998,0.628,2.215,0.628,3.645c0,1.375-0.235,2.564-0.718,3.545c-0.472,0.998-1.109,1.823-1.896,2.457
		c-0.805,0.624-1.708,1.095-2.729,1.4c-1.021,0.299-2.053,0.452-3.104,0.452h-4.941V-6.127H182.897z M168.576-6.127h11.512v3.07
		h-8.173v2.706h6.856v3.055h-6.856v3.783h8.527v3.079h-11.847V-6.127H168.576z M119.099,29.845c-0.27,0.629-0.651,1.161-1.153,1.572
		c-0.496,0.452-1.101,0.766-1.812,0.974c-0.693,0.226-1.48,0.324-2.343,0.324h-7.324V17.026h7.382c1.572,0,2.815,0.354,3.734,1.061
		c0.922,0.718,1.384,1.73,1.384,3.065c0,0.688-0.146,1.286-0.441,1.817c-0.3,0.531-0.722,0.942-1.258,1.237
		c0.643,0.295,1.181,0.718,1.61,1.297c0.424,0.569,0.644,1.278,0.644,2.142C119.521,28.471,119.38,29.217,119.099,29.845z
		 M117.542,9.566l-1.311-3.492h-6.042l-1.302,3.492h-3.552l6.342-15.693h3.206l6.288,15.693H117.542z M134.724,25.8
		c0,2.278-0.575,4.045-1.725,5.295c-1.153,1.247-2.756,1.876-4.818,1.876c-0.963,0-1.847-0.168-2.652-0.482
		c-0.815-0.306-1.488-0.756-2.062-1.375c-0.574-0.599-1.007-1.365-1.316-2.229c-0.314-0.885-0.477-1.907-0.477-3.045v-8.812h3.231
		V25.8c0,1.266,0.291,2.258,0.875,3.004c0.584,0.727,1.39,1.09,2.412,1.09c1.026,0,1.832-0.352,2.436-1.069
		c0.595-0.727,0.874-1.71,0.874-2.967v-8.816h3.223V25.8z M128.967,9.807c-1.095,0-2.072-0.192-2.958-0.575
		c-0.873-0.378-1.639-0.933-2.282-1.625c-0.635-0.708-1.126-1.552-1.479-2.534c-0.343-0.998-0.511-2.118-0.511-3.36
		c0-1.198,0.183-2.309,0.541-3.281c0.364-0.997,0.863-1.852,1.508-2.554c0.647-0.717,1.43-1.257,2.318-1.669
		c0.903-0.394,1.891-0.605,2.985-0.605c0.763,0,1.469,0.079,2.092,0.271c1.459,0.393,2.987,1.43,3.966,2.535l-2.295,2.215
		c-0.825-1.066-2.577-1.892-3.812-1.892c-0.614,0-1.168,0.118-1.66,0.359c-0.485,0.255-0.908,0.595-1.228,1.036
		c-0.323,0.452-0.584,0.968-0.766,1.572c-0.172,0.614-0.251,1.277-0.251,1.999c0,0.708,0.079,1.371,0.251,1.975
		c0.182,0.595,0.432,1.115,0.775,1.558c0.339,0.461,0.742,0.814,1.238,1.056c0.491,0.24,1.035,0.393,1.66,0.393
		c1.257,0,3.34-0.953,4.002-2.008l2.343,2.083C134.429,8.711,130.96,9.807,128.967,9.807z M149.183,30.014
		c-0.273,0.619-0.638,1.129-1.158,1.571c-0.531,0.442-1.18,0.786-1.965,1.031c-0.795,0.227-1.748,0.354-2.849,0.354
		c-1.355,0-2.583-0.256-3.675-0.767c-1.1-0.512-1.984-1.198-2.583-2.084l2.328-2.022c0.56,0.648,1.18,1.119,1.887,1.395
		c0.688,0.256,1.453,0.413,2.219,0.413c0.983,0,1.69-0.139,2.123-0.394c0.471-0.274,0.688-0.708,0.688-1.306
		c0-0.266-0.049-0.481-0.138-0.659c-0.099-0.186-0.265-0.354-0.53-0.538c-0.235-0.169-0.628-0.326-1.081-0.463
		c-0.48-0.177-1.08-0.314-1.847-0.473c-0.746-0.178-1.425-0.362-2.023-0.589c-0.628-0.227-1.159-0.52-1.602-0.846
		c-0.451-0.353-0.796-0.784-1.051-1.315c-0.245-0.521-0.374-1.159-0.374-1.945c0-0.706,0.167-1.355,0.473-1.925
		c0.274-0.562,0.688-1.047,1.218-1.449c0.53-0.394,1.139-0.692,1.827-0.902c0.688-0.213,1.454-0.326,2.26-0.326
		c1.257,0,2.348,0.231,3.29,0.653c0.934,0.433,1.818,1.052,2.563,1.809l-2.317,2.22c-0.511-0.53-1.07-0.943-1.66-1.208
		c-0.6-0.266-1.248-0.414-1.994-0.414c-0.432,0-0.786,0.04-1.081,0.148c-0.285,0.06-0.511,0.177-0.696,0.314
		c-0.207,0.138-0.326,0.254-0.402,0.441c-0.08,0.167-0.119,0.336-0.119,0.521c0,0.246,0.068,0.473,0.157,0.62
		c0.099,0.187,0.274,0.324,0.529,0.471c0.236,0.147,0.57,0.246,0.983,0.384c0.413,0.117,0.942,0.235,1.592,0.403
		c0.629,0.146,1.276,0.323,1.915,0.53c0.639,0.205,1.208,0.479,1.729,0.834c0.5,0.354,0.934,0.815,1.257,1.376
		c0.324,0.569,0.472,1.258,0.472,2.102C149.527,28.708,149.419,29.394,149.183,30.014z M144.232,9.807
		c-1.081,0-2.082-0.192-2.946-0.575c-0.884-0.378-1.651-0.933-2.299-1.625c-0.629-0.708-1.12-1.552-1.475-2.534
		c-0.334-0.998-0.52-2.118-0.52-3.36c0-1.198,0.186-2.309,0.54-3.281c0.374-0.997,0.884-1.852,1.512-2.554
		c0.629-0.717,1.435-1.257,2.318-1.669c0.895-0.394,1.887-0.605,2.987-0.605c0.767,0,1.453,0.079,2.091,0.271
		c1.465,0.393,2.997,1.43,3.979,2.535l-2.308,2.215c-0.825-1.066-2.583-1.892-3.821-1.892c-0.618,0-1.159,0.118-1.65,0.359
		c-0.49,0.255-0.903,0.595-1.228,1.036c-0.333,0.452-0.6,0.968-0.756,1.572c-0.158,0.604-0.255,1.277-0.255,1.999
		c0,0.708,0.097,1.371,0.255,1.975c0.176,0.595,0.423,1.115,0.766,1.558c0.334,0.461,0.746,0.814,1.247,1.056
		c0.481,0.25,1.052,0.393,1.66,0.393c1.238,0,3.321-0.953,3.988-2.008l2.358,2.083C149.694,8.711,146.236,9.807,144.232,9.807z
		 M155.361,32.715h-3.212V17.026h3.212V32.715z M156.315,9.566h-3.301V-6.127h7.712c0.756,0,1.503,0.099,2.19,0.294
		c0.697,0.197,1.307,0.511,1.828,0.943c0.51,0.413,0.922,0.924,1.217,1.538c0.305,0.624,0.472,1.351,0.472,2.195
		c0,1.174-0.275,2.151-0.806,2.907c-0.511,0.742-1.709,1.444-2.751,1.847l3.675,5.958h-3.832l-3.437-5.525l-2.968-0.127V9.566
		L156.315,9.566z M171.768,32.715h-2.878l-5.935-8.567c-0.196-0.293-0.393-0.618-0.628-0.952c-0.207-0.344-0.373-0.619-0.491-0.824
		c0,0.146,0,0.382,0,0.679c0.02,0.273,0.02,0.598,0.02,0.942c0,0.314,0,0.646,0.02,0.981c0,0.324,0.02,0.609,0.02,0.845v6.896
		h-3.183V17.026h3.105l5.697,8.291c0.195,0.303,0.412,0.618,0.628,0.953c0.217,0.343,0.393,0.629,0.49,0.825
		c0-0.147,0-0.374-0.019-0.639c0-0.295,0-0.618,0-0.953c0-0.354-0.019-0.667-0.019-1.011c0-0.325-0.02-0.6-0.02-0.825v-6.642h3.182
		v15.688H171.768z M187.122,32.715h-11.827V17.026h11.473V20.1h-8.174v2.703h6.888v3.055h-6.888v3.792h8.537v3.065H187.122z
		 M199.912,30.014c-0.226,0.619-0.619,1.129-1.14,1.571c-0.512,0.442-1.179,0.786-1.965,1.031c-0.786,0.227-1.739,0.354-2.838,0.354
		c-1.347,0-2.585-0.256-3.686-0.767c-1.1-0.512-1.964-1.198-2.583-2.084l2.318-2.022c0.58,0.648,1.209,1.119,1.915,1.395
		c0.688,0.274,1.435,0.413,2.201,0.413c0.982,0,1.689-0.139,2.142-0.394c0.462-0.274,0.668-0.708,0.668-1.306
		c0-0.266-0.049-0.481-0.138-0.659c-0.078-0.186-0.274-0.354-0.53-0.538c-0.245-0.169-0.608-0.326-1.081-0.463
		c-0.472-0.177-1.08-0.314-1.845-0.473c-0.729-0.178-1.396-0.362-2.024-0.589c-0.629-0.227-1.17-0.52-1.612-0.846
		c-0.441-0.353-0.786-0.784-1.021-1.315c-0.256-0.521-0.395-1.159-0.395-1.945c0-0.706,0.168-1.355,0.463-1.925
		c0.284-0.562,0.718-1.047,1.228-1.449c0.521-0.394,1.139-0.692,1.837-0.902c0.679-0.213,1.444-0.326,2.25-0.326
		c1.257,0,2.357,0.231,3.301,0.653c0.942,0.433,1.808,1.052,2.572,1.809l-2.337,2.22c-0.511-0.53-1.062-0.943-1.66-1.208
		c-0.58-0.266-1.238-0.414-1.983-0.414c-0.442,0-0.778,0.04-1.092,0.148c-0.285,0.06-0.512,0.177-0.707,0.314
		c-0.177,0.138-0.304,0.254-0.392,0.441c-0.071,0.167-0.118,0.336-0.118,0.521c0,0.246,0.058,0.473,0.166,0.62
		c0.107,0.187,0.246,0.324,0.521,0.471c0.236,0.147,0.57,0.246,1.004,0.384c0.392,0.117,0.931,0.235,1.571,0.403
		c0.638,0.146,1.274,0.323,1.914,0.53c0.64,0.205,1.218,0.479,1.738,0.834c0.511,0.354,0.943,0.815,1.257,1.376
		c0.314,0.569,0.474,1.258,0.474,2.102C200.285,28.708,200.167,29.394,199.912,30.014z M213.762,30.014
		c-0.235,0.619-0.618,1.129-1.157,1.571c-0.512,0.442-1.16,0.786-1.955,1.031c-0.796,0.227-1.74,0.354-2.84,0.354
		c-1.354,0-2.573-0.256-3.692-0.767c-1.081-0.512-1.936-1.198-2.555-2.084l2.318-2.022c0.56,0.648,1.178,1.119,1.885,1.395
		c0.709,0.274,1.455,0.413,2.222,0.413c0.982,0,1.688-0.139,2.15-0.394c0.442-0.274,0.658-0.708,0.658-1.306
		c0-0.266-0.039-0.481-0.138-0.659c-0.089-0.186-0.255-0.354-0.511-0.538c-0.257-0.169-0.629-0.326-1.091-0.463
		c-0.479-0.177-1.069-0.314-1.847-0.473c-0.735-0.178-1.424-0.362-2.023-0.589c-0.618-0.227-1.169-0.52-1.611-0.846
		c-0.452-0.353-0.795-0.784-1.051-1.315c-0.235-0.521-0.354-1.159-0.354-1.945c0-0.706,0.147-1.355,0.442-1.925
		c0.305-0.562,0.697-1.047,1.237-1.449c0.521-0.394,1.13-0.692,1.827-0.902c0.708-0.213,1.444-0.326,2.25-0.326
		c1.258,0,2.358,0.231,3.3,0.653c0.944,0.433,1.808,1.052,2.574,1.809l-2.328,2.22c-0.521-0.53-1.07-0.943-1.659-1.208
		c-0.59-0.266-1.269-0.414-1.995-0.414c-0.432,0-0.795,0.04-1.071,0.148c-0.293,0.06-0.549,0.177-0.717,0.314
		c-0.186,0.138-0.314,0.254-0.393,0.441c-0.068,0.167-0.128,0.336-0.128,0.521c0,0.246,0.07,0.473,0.167,0.62
		c0.088,0.187,0.275,0.324,0.521,0.471c0.245,0.147,0.59,0.246,0.981,0.384c0.412,0.117,0.963,0.235,1.592,0.403
		c0.648,0.146,1.298,0.323,1.926,0.53c0.629,0.205,1.208,0.479,1.718,0.834c0.522,0.354,0.934,0.815,1.259,1.376
		c0.324,0.569,0.501,1.258,0.501,2.102C214.137,28.708,213.999,29.394,213.762,30.014z M218.213-3.038h-4.744V9.556h-3.311V-3.038
		h-4.745v-3.09h12.789v3.09H218.213z M232.172,9.566h-11.837V-6.127h11.503v3.07h-8.174v2.706h6.857v3.055h-6.857v3.783h8.528v3.079
		H232.172z M247.339,5.257c-0.49,0.998-1.118,1.823-1.905,2.457c-0.796,0.624-1.709,1.095-2.731,1.4
		c-1.012,0.299-2.043,0.452-3.104,0.452h-4.933V-6.127h5.168c1.179,0,2.27,0.133,3.281,0.413c1.003,0.27,1.857,0.728,2.594,1.346
		c0.747,0.639,1.297,1.43,1.729,2.436c0.423,0.998,0.619,2.215,0.619,3.645C248.057,3.087,247.811,4.276,247.339,5.257z"/>
	<path fill="#005A78" d="M239.716-3.078h-1.737v9.592h1.62c0.854,0,1.62-0.117,2.259-0.348c0.629-0.23,1.15-0.555,1.562-0.977
		c0.412-0.423,0.719-0.923,0.934-1.499c0.196-0.604,0.304-1.257,0.304-1.969c0-1.591-0.402-2.8-1.169-3.596
		C242.722-2.689,241.465-3.078,239.716-3.078z"/>
	<path fill="#005A78" d="M115.298,22.498c0.27-0.294,0.403-0.629,0.403-1.06c0-0.512-0.163-0.887-0.463-1.122
		c-0.304-0.255-0.805-0.393-1.512-0.393h-4.103v2.987h4.263C114.552,22.911,115.028,22.774,115.298,22.498z"/>
</g>
<g>
	<g>
		<path fill="#005A78" d="M88.198-34.596v95.682H11.797c-5.442,0-9.858-4.44-9.858-9.883v-75.921c0-5.442,4.425-9.868,9.858-9.868
			h76.401 M89.649-36.044H11.797c-6.238,0-11.316,5.074-11.316,11.316v75.921c0,6.257,5.069,11.325,11.316,11.325h77.852V-36.044
			L89.649-36.044z"/>
	</g>
</g>
</svg>
