<?xml version="1.0" encoding="utf-8"?>
<!-- Generator: Adobe Illustrator 15.1.0, SVG Export Plug-In . SVG Version: 6.00 Build 0)  -->
<!DOCTYPE svg PUBLIC "-//W3C//DTD SVG 1.1//EN" "http://www.w3.org/Graphics/SVG/1.1/DTD/svg11.dtd">
<svg version="1.1" id="Layer_1" xmlns="http://www.w3.org/2000/svg" xmlns:xlink="http://www.w3.org/1999/xlink" x="0px" y="0px"
	 width="27px" height="23px" viewBox="0 0 27 23" enable-background="new 0 0 27 23" xml:space="preserve">
<rect x="-0.057" y="-0.208" width="27" height="23"/>
<linearGradient id="SVGID_1_" gradientUnits="userSpaceOnUse" x1="0.8066" y1="11.2925" x2="26.0791" y2="11.2925">
	<stop  offset="0" style="stop-color:#D1A238"/>
	<stop  offset="1" style="stop-color:#DCBE50"/>
</linearGradient>
<path fill="url(#SVGID_1_)" d="M5.242,11.57l1.411-2.087h16.08l-2.149,2.669h-0.198l0.031-0.228v-0.046
	c0-0.159-0.192-0.26-0.573-0.308H5.242z M13.249,5.676c-0.776,0-1.481,0.021-2.105,0.056c-0.338,0.031-0.791,0.093-1.362,0.197
	c-2.07,0.386-3.603,1.31-4.603,2.778c-0.524,0.794-0.787,1.662-0.787,2.601c0,2.017,1.006,3.542,3.022,4.581
	c1.326,0.68,3.316,1.021,5.968,1.021l11.4-0.034c0.098-0.024,0.223-0.082,0.375-0.169l0.643-0.373h0.279l-2.201,2.663h-10.49
	c-1.916,0-3.432-0.088-4.551-0.271c-1.466-0.235-2.815-0.689-4.038-1.356c-2.662-1.439-3.992-3.396-3.992-5.874
	c0-0.983,0.189-1.878,0.574-2.681c0.691-1.432,1.878-2.623,3.565-3.567C6.019,4.648,7.107,4.223,8.214,3.98
	C8.61,3.882,9.044,3.81,9.527,3.751c0.866-0.11,2.109-0.162,3.729-0.162h6.412l-2.186,2.63H17.32l0.03-0.19V5.986
	c0-0.164-0.191-0.265-0.574-0.311H13.249z"/>
</svg>
