<svg xmlns="http://www.w3.org/2000/svg" width="747.998" height="396.944" viewBox="0 0 747.998 396.944"><path fill="#FFF" d="M136.684 60.954c-64.09 0-116.235 51.293-116.235 114.344 0 63.05 52.14 114.347 116.23 114.347h484.48c64.08 0 116.23-51.298 116.23-114.347 0-63.05-52.15-114.344-116.23-114.344H136.68z"/><path fill="#C7C8CA" d="M621.168 299.385H136.684c-69.55 0-126.134-55.668-126.134-124.087 0-68.418 56.583-124.082 126.134-124.082h484.484c69.55 0 126.133 55.664 126.133 124.082 0 68.42-56.58 124.087-126.13 124.087M136.69 60.955c-64.09 0-116.235 51.292-116.235 114.343 0 63.05 52.14 114.347 116.233 114.347H621.17c64.086 0 116.23-51.298 116.23-114.347 0-63.05-52.145-114.344-116.23-114.344H136.69z"/><path d="M563.05 105.86c-18.806 0-34.056 15.005-34.056 33.516 0 18.5 15.25 33.494 34.057 33.494 18.82 0 34.07-14.993 34.07-33.494 0-18.51-15.24-33.515-34.06-33.515m0 50.7c-9.65 0-17.48-7.69-17.48-17.18 0-9.5 7.83-17.19 17.48-17.19s17.48 7.7 17.48 17.2-7.83 17.19-17.48 17.19m-156.22-50.71c-18.8 0-34.05 15.01-34.05 33.52 0 18.5 15.25 33.5 34.06 33.5 18.82 0 34.07-14.99 34.07-33.49 0-18.51-15.25-33.51-34.07-33.51m0 50.7c-9.64 0-17.46-7.69-17.46-17.18 0-9.51 7.83-17.2 17.47-17.2 9.66 0 17.48 7.69 17.48 17.2 0 9.49-7.82 17.18-17.48 17.18m119.97.93c-2.15.62-5.45 1.23-6.7 1.23-5.82 0-7.09-1.97-7.09-7.45v-30.96h13.93V107.4h-13.93V89.1h-15.67l-3.29 18.287h-10.92v.01h-.89c-8.93.04-15.66 5.4-19.97 13.79l-5.45-13.8H445.6v64.294h19.2V143.7c0-14.1 8.47-23.107 18.504-23.384h10.51v31.966c0 15.043 7.84 20.64 20.6 20.64 6.59 0 11.64-1.37 14.67-2.358l-2.27-13.06zm93.58-29.78v43.96h-18.67v-64.3h11.34l3.79 9.82"/><path d="M616.756 117.254c5.676-6.48 13.442-11.384 22.54-11.384 15.554 0 21.953 12.2 21.953 23.51v42.287h-19.23v-41.743c0-5.512-4.66-8.503-9.72-8.503-5.39 0-8.85 3.04-11.89 6.28M297.87 84.1h21.4l29.386 55.062v-55.06h17.724v87.577h-19.39l-31.39-60.55v60.54h-17.73"/><path fill="#A7A9AC" d="M717.96 51.22v3.135h-4.66V69.78h-3.64V54.355h-4.577V51.22m15.493 18.56V51.22h4.922l3.273 12.154 3.33-12.154h4.98v18.56h-3V55.26H734l-3.812 14.52h-2.666l-3.85-14.52h-.083v14.52M292.53 249.287l4.444-6.796c3.608 2.63 9.024 5.06 15.63 5.06 6.417 0 10.38-2.86 10.38-7.83 0-5.71-5.01-7.22-13.235-10.04-7.38-2.55-14.64-6.21-14.64-16.49 0-9.63 7.72-14.88 18.11-14.88 6.91 0 12 1.34 16.1 3.72l-3.56 7.23c-3.44-1.76-7.55-2.95-12.38-2.95-5.79 0-9.27 2.15-9.27 6.67 0 5.31 4.02 6.66 11.59 9.1 7.89 2.52 16.58 6.11 16.58 17.51 0 9.64-7 15.99-19.57 15.99-9.32 0-16.17-3.16-20.21-6.26m56.63-50.11h33.65v7.7h-24.07v15.19h19.01v7.53h-19.01v17.55h25.53v7.68h-35.11m48.8-27.77c0-16.24 7.903-28.73 23.68-28.73 7.07 0 12.65 2.2 16.58 6.71l-5.587 6.36c-3.37-3.25-6.23-4.84-10.84-4.84-9.26 0-13.53 7.458-13.53 21.23 0 12.926 4.51 19.476 13.62 19.476 5.06 0 8.61-2.61 11.73-5.86l5.64 6.18c-4.1 4.76-9.24 8-17.45 8-16.27 0-23.84-12.2-23.84-28.507m56.88 6.474V199.2h9.65v35.88c0 7.65 1.92 12.66 10.13 12.66 8.13 0 10.15-5.01 10.15-12.66V199.2h9.74v34.35c0 13.79-5.39 22.03-19.968 22.03-14.33 0-19.71-8.24-19.71-22.03m98.71 21.306h-10.46l-10.87-23.603h-8.94v23.603h-9.58v-55.66h18.45c11.425 0 20.343 4.03 20.343 16.224 0 8.32-5.07 12.495-10.718 14.48l11.76 24.947zm-21.74-30.87c7.17 0 10.86-2.29 10.86-8.72 0-6.18-3.766-8.383-10.3-8.383h-9.094v17.104h8.53zM569.9 199.2h33.64v7.694H579.5v15.19h18.986v7.53h-18.983v17.55h25.518v7.68h-35.09m51.26-55.643h14.13c18.44 0 27.31 9.82 27.31 27.63 0 18.14-9.02 28.03-26.81 28.03H621.2V199.2zm13.57 47.97c13.21 0 17.72-5.99 17.72-20.34 0-12.59-3.54-19.94-16.53-19.94h-5.14v40.29h3.95z"/><path fill="#FFC20E" d="M136.103 309.182C61.063 309.182 0 249.112 0 175.298 0 101.48 61.064 41.423 136.103 41.423c75.03 0 136.08 60.057 136.092 133.875-.012 73.814-61.062 133.884-136.092 133.884m0-225.41c-24.84 0-48.205 9.524-65.8 26.81-17.573 17.295-27.25 40.282-27.25 64.716 0 24.43 9.678 47.417 27.25 64.722 17.584 17.278 40.95 26.802 65.8 26.81 24.836-.01 48.203-9.53 65.796-26.816 17.55-17.296 27.23-40.283 27.24-64.714-.01-24.435-9.69-47.42-27.25-64.725-17.6-17.28-40.96-26.804-65.79-26.804m148.25-62.96h10.61v10.44h-10.61zm0-20.8h10.61v10.46h-10.61zm-29.86 31.16h9.91v10.19h-9.91z"/><path d="M234.85 51.183h9.996v9.75h-9.995zm29.553-9.82h11.112v9.82h-11.112zm-39.505.48h9.952v9.34h-9.952zm29.6 9.34h9.91v9.75h-9.91zm19.356-40.725h10.498v10.346h-10.498z"/><path d="M254.497 20.804h19.358v10.364h-19.358zm-9.65 10.366h9.647v20.01h-9.648zm0 29.76v9.823h-9.995V60.93h-16.58v7.077h-8.886v8.73h9.92v9.728h-9.92v-9.728h-10.55V92h-9.972v9.738h-6.618v9.78h-7.278c-8.173 11.96-28.664 49.24-34.852 64.418-22.33-30.563-39.664-42.677-53.316-47.06-7.36-2.18-16.235 5.71-4.004 18.12 28.09 30.39 36.934 55.552 45.475 75.624 4.52 10.586 24.77 12.232 28.84 1.45 8.65-22.774 21.18-48.37 36.03-69.392v-10.89h7.93v-9.823h8.33v-11.383h9.95V111.61h-10.07v-9.975h10.07v9.975h9.85l-.02-9.872h7.89V89.82h8.89v-8.198h8.56v-20.69h-9.65z"/><path fill="#A7A9AC" d="M52.854 355.077h7.452v5.338c2.4-3.335 5.787-6 11.023-6 7.69 0 15.14 6 15.14 16.597v.12c0 10.603-7.39 16.598-15.15 16.598-5.36 0-8.75-2.664-11.03-5.633v14.663h-7.45v-41.683zm26.048 16.053v-.12c0-6.175-4.25-10.233-9.3-10.233-5.05 0-9.484 4.117-9.484 10.234v.12c0 6.18 4.436 10.25 9.485 10.25 5.107 0 9.3-3.94 9.3-10.24m13.643.13v-.12c0-9.14 7.393-16.72 17.37-16.72 9.974 0 17.304 7.45 17.304 16.6v.12c0 9.09-7.39 16.67-17.427 16.67-9.915 0-17.247-7.45-17.247-16.54m27.223 0v-.12c0-5.63-4.13-10.29-9.98-10.29-5.98 0-9.79 4.6-9.79 10.17v.12c0 5.58 4.12 10.31 9.91 10.31 6.03 0 9.85-4.66 9.85-10.18m11.04-16.18h7.64l6.52 21.94 7.2-22.05h6.34l7.26 22.06 6.65-21.94h7.45l-10.65 32.23h-6.66l-7.26-21.876-7.34 21.87h-6.65m42.37-16.11v-.12c0-9.142 6.59-16.66 15.89-16.66 10.34 0 15.58 8 15.58 17.21 0 .67-.06 1.33-.12 2.06h-23.89c.8 5.208 4.55 8.12 9.36 8.12 3.63 0 6.22-1.33 8.8-3.812l4.37 3.818c-3.08 3.635-7.33 5.998-13.3 5.998-9.43 0-16.7-6.73-16.7-16.6m24.08-2.36c-.496-4.73-3.327-8.42-8.256-8.42-4.556 0-7.754 3.458-8.43 8.42h16.7zm15.15-13.753h7.45v7.204c2.03-4.78 5.786-8.05 11.51-7.81v7.752h-.427c-6.53 0-11.08 4.186-11.08 12.67v12.18h-7.45v-32zm23.286 16.11v-.12c0-9.147 6.595-16.66 15.892-16.66 10.35 0 15.58 8 15.58 17.21 0 .663-.06 1.33-.12 2.06h-23.89c.8 5.2 4.56 8.113 9.36 8.113 3.64 0 6.223-1.33 8.81-3.81l4.37 3.813c-3.084 3.636-7.33 6-13.3 6-9.424 0-16.697-6.73-16.697-16.6m24.08-2.36c-.49-4.726-3.32-8.417-8.25-8.417-4.557 0-7.756 3.45-8.43 8.41h16.68zm13.44 2.3v-.12c0-10.595 7.326-16.597 15.084-16.597 5.35 0 8.74 2.66 11.08 5.63v-17.2h7.45v44.23h-7.45v-5.337c-2.4 3.33-5.79 5.992-11.086 5.992-7.634 0-15.084-5.998-15.084-16.6m26.29 0v-.12c0-6.177-4.434-10.23-9.42-10.23-5.11 0-9.36 3.87-9.36 10.23v.12c0 6.18 4.31 10.25 9.36 10.25 4.984 0 9.42-4.12 9.42-10.24m42.53 10.964v4.97h-7.45V342.9h7.45v17.58c2.4-3.33 5.788-6 11.02-6 7.7 0 15.15 6 15.15 16.6v.12c0 10.605-7.39 16.6-15.15 16.6-5.353 0-8.74-2.665-11.02-5.633m18.6-10.965v-.12c0-6.17-4.25-10.23-9.3-10.23-5.05 0-9.48 4.11-9.48 10.23v.12c0 6.18 4.44 10.245 9.49 10.245 5.11 0 9.3-3.94 9.3-10.245m12.65 23.87l2.52-5.457c1.36.735 2.837 1.216 4.377 1.216 2.1 0 3.39-.91 4.62-3.69l-13.55-32h7.94l9.24 23.75 8.437-23.742h7.76L402.22 388c-2.585 6.54-5.48 8.97-10.72 8.97-3.13-.003-5.41-.73-7.69-1.947"/><path fill="#A30046" d="M437.19 344.66h8.372l12.998 32.59 12.927-32.59h8.192l-17.92 42.708h-6.65m26.09-16.176v-.124c0-9.144 6.59-16.656 15.89-16.656 10.34 0 15.57 7.995 15.57 17.21 0 .662-.06 1.328-.12 2.057h-23.89c.8 5.2 4.55 8.11 9.35 8.11 3.64 0 6.22-1.33 8.8-3.82l4.38 3.81c-3.09 3.63-7.33 6-13.31 6-9.43 0-16.69-6.73-16.69-16.6m24.07-2.37c-.5-4.73-3.33-8.42-8.25-8.42-4.56 0-7.76 3.45-8.44 8.42h16.68zm15.15-13.76h7.45v7.21c2.03-4.78 5.79-8.05 11.52-7.82v7.75h-.44c-6.52 0-11.08 4.18-11.08 12.66v12.17h-7.45v-31.99zm25.06-11.87h8v6.96h-8.01v-6.96zm.3 11.86h7.45v31.99h-7.45v-31.99zm15.18 25.81l4.56-5.33c4.13 3.51 8.25 5.51 13.61 5.51 4.68 0 7.63-2.12 7.63-5.33v-.13c0-3.02-1.73-4.67-9.73-6.48-9.18-2.18-14.36-4.848-14.36-12.66v-.13c0-7.27 6.15-12.3 14.72-12.3 6.28 0 11.27 1.876 15.64 5.33l-4.06 5.63c-3.88-2.85-7.77-4.364-11.71-4.364-4.438 0-7.017 2.25-7.017 5.04v.126c0 3.27 1.97 4.725 10.22 6.66 9.11 2.184 13.86 5.39 13.86 12.42v.12c0 7.945-6.35 12.666-15.4 12.666-6.583.005-12.8-2.235-17.98-6.774m41.6-37.687h8.01v6.96h-8.01v-6.96zm.31 11.87h7.45v31.99h-7.45v-31.99zm16.826 37.99l2.77-5.51c3.45 2.12 7.15 3.39 11.58 3.39 6.66 0 10.286-3.385 10.286-9.81v-2.48c-2.71 3.45-6.098 5.87-11.45 5.87-7.64 0-14.78-5.57-14.78-14.96v-.12c0-9.45 7.2-15.02 14.78-15.02 5.48 0 8.865 2.48 11.39 5.45v-4.79h7.445v25.44c0 5.39-1.41 9.39-4.12 12.06-2.96 2.91-7.51 4.31-13.37 4.31-5.35 0-10.347-1.33-14.53-3.817m24.69-23.504v-.13c0-5.26-4.37-8.84-9.55-8.84-5.17 0-9.235 3.51-9.235 8.79v.112c0 5.27 4.13 8.842 9.24 8.842 5.18 0 9.546-3.63 9.546-8.788m16.91-14.476h7.444v4.97c2.1-3.026 5.11-5.635 10.16-5.635 7.33 0 11.58 4.85 11.58 12.3v20.36H683V368.9c0-4.97-2.52-7.813-6.95-7.813-4.315 0-7.33 2.968-7.33 7.938v18.057h-7.45v-32z"/></svg>